<?xml version="1.0" standalone="no"?>
<!DOCTYPE svg PUBLIC "-//W3C//DTD SVG 20010904//EN"
 "http://www.w3.org/TR/2001/REC-SVG-20010904/DTD/svg10.dtd">
<svg version="1.0" xmlns="http://www.w3.org/2000/svg"
 width="4000.000000pt" height="3972.000000pt" viewBox="0 0 4000.000000 3972.000000"
 preserveAspectRatio="xMidYMid meet">

<g transform="translate(0.000000,3972.000000) scale(0.100000,-0.100000)"
fill="#000000" stroke="none">
<path d="M0 19860 l0 -19860 20000 0 20000 0 0 19860 0 19860 -20000 0 -20000
0 0 -19860z m20570 14976 c194 -27 343 -66 595 -158 99 -37 262 -127 320 -178
11 -10 75 -47 143 -84 148 -80 235 -143 366 -267 131 -123 234 -243 308 -354
69 -104 285 -531 346 -685 81 -202 138 -484 152 -745 12 -231 19 -255 98 -337
71 -74 138 -116 155 -99 17 17 41 13 55 -9 7 -11 19 -20 27 -20 8 0 15 -7 15
-15 0 -18 5 -19 29 -3 13 8 31 9 61 2 38 -8 45 -15 74 -68 17 -32 47 -73 65
-92 29 -28 53 -42 142 -85 9 -4 36 -13 60 -19 24 -7 71 -30 104 -53 166 -114
176 -119 325 -172 33 -12 73 -42 141 -109 81 -80 101 -95 138 -101 23 -4 45
-13 48 -21 6 -16 43 -19 43 -3 0 6 -5 19 -11 31 -6 11 -9 22 -6 24 8 8 37 -8
37 -20 0 -18 88 -99 160 -146 36 -24 146 -85 245 -138 99 -52 225 -119 280
-149 55 -30 118 -64 140 -75 50 -26 177 -111 230 -154 22 -17 96 -60 164 -94
68 -34 142 -73 163 -86 37 -24 198 -110 453 -244 203 -106 359 -206 435 -277
19 -18 71 -52 115 -74 44 -23 157 -83 250 -134 94 -51 203 -109 244 -129 40
-21 110 -61 155 -90 44 -29 135 -82 201 -118 66 -35 168 -96 226 -135 58 -38
157 -96 220 -128 63 -32 172 -91 242 -131 70 -41 150 -85 177 -99 26 -13 99
-56 160 -95 62 -39 153 -92 203 -117 50 -25 134 -75 187 -111 52 -36 203 -124
335 -195 272 -146 494 -273 575 -327 30 -21 98 -59 150 -85 52 -26 169 -90
260 -143 438 -253 655 -381 765 -452 66 -42 161 -101 210 -130 445 -265 702
-518 789 -780 19 -59 27 -111 35 -247 8 -118 11 -1672 11 -4925 0 -2800 4
-4800 10 -4868 13 -167 25 -194 128 -291 100 -92 209 -169 279 -195 86 -32
164 -94 368 -292 402 -390 445 -447 634 -826 101 -204 111 -229 98 -244 -13
-15 -12 -31 9 -132 53 -258 73 -393 79 -520 2 -41 4 -83 4 -92 1 -10 8 -18 17
-18 13 0 15 -7 11 -35 -4 -27 1 -48 20 -85 24 -47 25 -51 9 -68 -9 -10 -16
-22 -16 -27 0 -5 -7 -16 -15 -25 -13 -14 -12 -17 5 -28 17 -10 20 -10 20 4 0
8 5 12 10 9 14 -8 13 -35 -1 -35 -13 0 -51 -39 -76 -77 -20 -30 -35 -102 -33
-164 0 -25 -4 -59 -10 -75 -7 -16 -13 -54 -16 -84 -6 -74 -26 -132 -74 -210
-22 -36 -40 -75 -40 -87 0 -38 -57 -182 -88 -221 -35 -44 -83 -137 -106 -207
-40 -118 -85 -179 -266 -361 -208 -208 -204 -205 -675 -492 -110 -68 -245
-125 -345 -147 -47 -11 -94 -30 -126 -51 -28 -18 -87 -46 -130 -61 -71 -25
-93 -28 -209 -28 -71 0 -135 -4 -142 -8 -6 -4 -45 -16 -86 -26 -83 -21 -144
-20 -252 3 -95 21 -242 40 -289 37 -21 -1 -62 5 -90 12 -28 8 -67 15 -86 16
-55 3 -110 20 -127 41 -14 16 -26 18 -77 13 -44 -4 -72 -1 -100 11 -21 9 -53
16 -70 16 -18 0 -36 4 -42 9 -5 5 -38 19 -74 31 -68 24 -118 50 -264 137 -77
46 -96 53 -140 53 -115 0 -193 -36 -458 -211 -350 -232 -428 -280 -566 -348
-355 -175 -450 -228 -722 -407 -206 -135 -405 -245 -880 -487 -107 -55 -196
-103 -198 -108 -2 -5 -13 -9 -23 -9 -11 0 -18 -3 -16 -7 7 -12 -71 -80 -140
-123 -34 -21 -216 -121 -405 -221 -290 -153 -633 -352 -918 -531 -36 -23 -130
-77 -210 -121 -251 -138 -292 -162 -410 -234 -63 -38 -164 -96 -225 -128 -126
-67 -229 -127 -365 -212 -52 -34 -176 -103 -276 -155 -99 -53 -223 -122 -275
-156 -120 -77 -557 -340 -629 -380 -30 -16 -161 -84 -290 -150 -225 -114 -298
-158 -440 -265 -36 -27 -92 -65 -125 -84 -60 -36 -96 -55 -570 -300 -229 -119
-382 -212 -524 -320 -73 -55 -291 -186 -374 -223 -95 -43 -170 -61 -258 -63
-74 -2 -77 -3 -111 -39 -38 -41 -35 -40 -181 -40 -38 0 -74 5 -81 11 -8 7 -31
9 -58 5 -34 -5 -51 -2 -78 15 -19 11 -50 21 -68 21 -22 0 -141 55 -380 177
-191 97 -414 210 -496 250 -174 86 -231 125 -282 194 -35 49 -129 109 -169
109 -19 0 -62 21 -175 85 -214 121 -465 251 -620 322 -132 60 -175 86 -197
120 -19 30 -103 113 -112 110 -12 -2 -222 103 -300 152 -45 27 -129 73 -188
101 -58 28 -154 79 -212 114 -130 78 -228 128 -303 157 -59 22 -168 115 -168
143 0 8 -76 52 -182 106 -101 50 -225 113 -277 140 -51 27 -123 59 -160 71
-89 29 -191 94 -191 123 0 11 -7 34 -15 50 -8 15 -15 34 -15 42 0 18 -36 40
-77 48 -27 4 -33 2 -34 -12 -2 -26 -4 -35 -13 -60 -7 -20 -12 -22 -39 -16 -43
9 -113 42 -128 61 -7 8 -12 31 -12 51 1 23 -5 41 -15 49 -21 15 -35 17 -26 2
4 -8 0 -7 -15 1 -12 6 -24 24 -28 41 -4 19 -12 29 -24 29 -10 0 -35 10 -56 21
-21 12 -76 38 -123 59 -47 20 -114 56 -150 79 -36 24 -132 76 -215 117 -130
64 -160 84 -222 144 -39 39 -78 70 -85 70 -21 0 -211 94 -262 130 -24 16 -137
78 -252 138 -115 60 -233 123 -262 141 -29 17 -55 31 -57 31 -23 0 -282 138
-322 172 -51 42 -66 62 -40 52 10 -3 13 8 13 46 0 41 -3 50 -17 50 -10 0 -25
-10 -33 -22 -14 -19 -17 -20 -33 -7 -26 22 -63 37 -108 44 -52 9 -84 26 -176
96 -42 33 -83 59 -90 59 -8 0 -43 14 -79 32 -36 18 -82 37 -102 43 -31 8 -128
79 -189 137 -26 24 -58 40 -69 33 -6 -3 -51 17 -101 45 -50 28 -93 49 -96 46
-3 -2 2 -15 11 -28 17 -23 22 -58 9 -58 -12 0 -40 20 -29 20 5 0 1 9 -9 20
-10 11 -26 20 -35 20 -20 0 -43 24 -33 33 3 4 16 7 29 7 33 0 19 38 -23 63
-19 11 -38 30 -43 42 -6 14 -23 28 -47 35 -60 19 -312 140 -343 165 -15 12
-79 45 -160 83 -25 12 -67 27 -95 33 -43 11 -125 59 -160 94 -6 5 -17 29 -24
53 -8 23 -20 42 -28 42 -7 0 -13 6 -13 13 -1 33 -75 85 -106 73 -7 -3 -16 -26
-20 -52 -7 -46 -7 -46 -41 -41 -42 7 -122 53 -130 74 -4 10 3 23 17 35 30 25
15 41 -38 40 -38 -1 -41 2 -56 41 -16 41 -19 43 -128 86 -120 47 -187 81 -228
115 -28 23 -71 44 -200 101 -177 77 -164 68 -269 194 -21 24 -43 41 -56 41
-30 0 -186 78 -270 134 -38 26 -128 77 -200 113 -183 93 -368 198 -449 256
-39 27 -136 111 -217 185 -170 156 -194 193 -215 333 -13 87 -23 114 -68 176
-86 119 -96 607 -96 5086 0 3294 5 3931 39 4692 11 241 21 218 -130 293 -4 1
-14 -5 -24 -14 -11 -12 -21 -14 -29 -8 -7 5 -33 23 -57 39 -24 17 -75 62 -114
101 -44 44 -106 92 -168 129 -80 48 -115 77 -190 159 -50 56 -159 171 -242
256 -196 202 -225 240 -300 392 -78 156 -100 223 -169 508 -74 304 -73 296
-102 498 -50 337 -49 374 16 571 33 99 37 127 26 187 -10 58 4 102 99 309 45
99 86 191 90 205 31 107 113 248 243 419 39 52 78 114 86 137 33 97 141 217
246 273 34 18 86 54 114 80 118 107 204 168 339 239 216 115 256 134 299 140
22 2 42 11 45 18 3 8 11 14 17 14 7 0 23 12 37 26 32 35 94 65 141 70 21 2 51
10 66 18 15 7 46 13 70 13 25 0 50 7 60 17 21 18 83 21 112 6 13 -7 21 -6 30
5 7 8 23 15 36 15 12 0 34 4 48 9 19 8 30 6 49 -10 14 -10 32 -19 40 -19 18 0
67 55 67 76 0 8 5 14 11 14 12 0 1 -43 -12 -48 -9 -4 -1 -30 15 -50 8 -11 11
-10 17 5 7 17 8 17 8 -1 1 -14 5 -16 19 -10 9 5 38 8 64 8 43 -1 48 1 48 21 0
27 -22 47 -43 39 -20 -7 -30 11 -13 25 10 8 16 9 21 1 3 -5 15 -10 26 -10 10
0 27 -9 36 -20 22 -25 37 -26 30 -1 -7 27 34 44 70 30 16 -6 50 -15 76 -20 27
-5 59 -17 72 -27 12 -10 42 -24 66 -31 24 -7 58 -17 75 -22 17 -5 66 -9 110
-8 43 1 91 -4 106 -9 15 -6 42 -9 60 -6 30 5 42 0 98 -47 36 -30 69 -59 73
-66 11 -17 42 -16 95 2 24 9 47 13 51 11 4 -3 48 -16 98 -29 120 -32 161 -28
234 23 31 22 77 48 100 59 24 10 87 51 139 90 66 50 151 99 275 160 99 49 202
107 229 129 27 22 110 73 185 113 333 176 425 228 556 314 77 51 176 111 220
135 44 24 123 71 175 105 52 34 181 106 285 160 244 126 491 261 532 291 180
134 370 247 655 390 128 64 484 271 648 376 76 49 336 196 514 290 82 44 197
110 255 147 58 38 147 90 196 116 50 27 180 101 290 165 110 65 297 170 415
235 118 65 267 153 330 195 63 42 151 96 195 120 44 24 116 66 160 94 78 49
198 113 456 241 69 35 142 77 161 94 74 65 103 203 72 346 -16 73 -25 246 -16
288 3 11 14 17 33 17 35 0 36 6 4 66 -14 26 -22 45 -19 41 15 -15 36 48 30 91
-5 37 -3 45 12 49 24 6 58 60 66 104 4 21 13 42 21 49 8 7 15 17 15 22 0 6 11
23 25 40 14 16 25 40 25 53 0 17 4 23 14 19 14 -6 56 40 56 62 0 7 -16 22 -35
34 -29 18 -35 27 -34 53 2 41 33 113 53 120 8 3 16 18 18 34 2 20 8 27 20 25
15 -2 52 34 60 59 2 6 16 4 38 -4 32 -14 35 -14 53 9 23 30 16 72 -19 104 -38
36 -30 57 47 129 39 36 118 115 177 175 59 59 148 139 197 176 50 38 113 92
140 120 28 28 78 74 113 102 109 87 366 215 541 269 53 16 110 34 126 39 17 5
86 21 155 36 69 14 139 32 156 39 140 58 573 79 854 41z m-2770 -1394 c0 -10
-6 -27 -14 -38 -11 -15 -17 -16 -27 -7 -9 9 -8 17 5 37 19 30 36 34 36 8z
m-8635 -5212 c3 -5 -3 -10 -14 -10 -12 0 -21 5 -21 10 0 6 6 10 14 10 8 0 18
-4 21 -10z m1781 -16897 c-7 -7 -26 7 -26 19 0 6 6 6 15 -2 9 -7 13 -15 11
-17z"/>
<path d="M20190 32988 c-247 -30 -237 -28 -301 -70 -123 -79 -203 -173 -274
-323 -16 -33 -39 -76 -52 -95 -53 -83 -55 -279 -3 -441 47 -151 166 -316 279
-388 128 -83 403 -87 633 -11 82 28 238 114 294 163 93 81 134 224 134 461 0
162 -18 254 -70 360 -46 92 -105 145 -245 217 -66 33 -131 72 -145 84 -48 45
-127 59 -250 43z"/>
<path d="M18395 30363 c-49 -25 -301 -180 -380 -233 -22 -15 -84 -50 -137 -78
-53 -28 -121 -69 -151 -91 -55 -42 -82 -57 -434 -238 -111 -57 -239 -127 -285
-155 -46 -28 -164 -101 -263 -161 -99 -59 -184 -112 -190 -117 -5 -4 -37 -24
-70 -43 -33 -19 -109 -62 -170 -97 -60 -35 -189 -102 -285 -150 -169 -83 -287
-155 -479 -288 -90 -63 -261 -158 -586 -327 -93 -49 -215 -116 -270 -150 -55
-34 -127 -77 -160 -95 -33 -18 -87 -52 -120 -75 -118 -82 -282 -179 -420 -248
-77 -39 -232 -126 -345 -195 -113 -68 -252 -148 -310 -176 -120 -59 -160 -82
-322 -183 -65 -40 -120 -73 -123 -73 -3 0 -23 -11 -44 -24 -21 -14 -96 -55
-167 -91 -153 -80 -167 -88 -311 -182 -61 -40 -114 -73 -117 -73 -8 0 -206
-119 -241 -145 -16 -12 -64 -40 -105 -61 -41 -21 -103 -65 -137 -98 -60 -56
-63 -60 -63 -106 0 -55 42 -128 111 -193 l40 -37 -2 -103 c-1 -60 -8 -121 -17
-148 -15 -44 -15 -50 3 -88 16 -37 17 -56 10 -184 -4 -78 -8 -202 -9 -276 -1
-153 -8 -142 104 -184 36 -14 272 -129 525 -257 950 -480 1537 -770 1557 -770
8 0 41 17 74 38 32 21 100 62 149 92 50 29 133 81 185 115 52 35 140 89 195
120 55 32 154 92 220 135 66 42 203 119 305 172 102 52 226 120 275 151 112
70 332 196 405 232 30 15 121 67 202 116 81 49 219 127 305 173 174 92 330
183 438 256 61 41 213 131 460 273 39 22 185 101 325 175 233 123 349 190 695
402 66 40 242 134 390 208 312 155 553 286 596 322 28 23 31 32 39 120 16 178
20 395 22 1475 l2 1080 -44 23 c-24 13 -59 36 -79 51 -57 45 -158 103 -261
151 -197 91 -334 198 -370 288 -23 59 -82 68 -165 25z"/>
<path d="M22142 30377 c-13 -6 -32 -28 -43 -49 -14 -28 -25 -38 -37 -34 -9 2
-49 10 -89 17 -63 10 -80 10 -135 -6 -53 -15 -74 -28 -137 -87 -41 -38 -106
-87 -145 -109 -158 -91 -372 -245 -383 -277 -3 -9 -12 -24 -20 -33 -12 -14
-14 -205 -11 -1280 3 -1184 5 -1266 21 -1302 10 -21 30 -45 45 -53 15 -8 92
-51 172 -95 80 -44 213 -113 296 -154 169 -84 204 -107 302 -200 38 -36 75
-65 81 -65 16 0 188 -82 237 -112 23 -15 108 -61 190 -104 82 -43 203 -111
269 -153 104 -65 289 -161 310 -161 4 0 4 7 1 16 -3 9 -2 12 5 9 6 -4 8 -13 5
-20 -13 -35 270 -225 336 -225 33 0 90 -31 142 -77 26 -24 53 -43 60 -43 6 0
27 -14 46 -32 21 -18 47 -32 65 -34 58 -4 167 -36 209 -62 18 -11 34 -35 45
-67 10 -28 39 -78 64 -111 60 -80 89 -83 130 -17 15 24 33 43 40 41 6 -3 21
-22 33 -44 16 -30 26 -39 47 -39 35 0 101 -73 124 -137 12 -34 22 -48 36 -48
10 0 26 -9 35 -20 17 -20 17 -20 65 5 34 19 60 25 92 24 32 -2 49 2 58 14 18
24 61 31 76 13 20 -23 114 0 181 45 14 9 57 26 95 38 39 12 97 36 130 53 68
35 157 66 207 72 18 2 59 7 92 11 52 7 147 11 371 17 69 2 291 -28 310 -42 6
-4 23 -10 39 -14 21 -5 31 -2 41 11 13 17 16 17 62 -6 35 -17 70 -25 128 -27
53 -3 122 -16 203 -40 141 -41 166 -51 280 -119 46 -27 105 -56 130 -66 26 -9
69 -25 96 -35 63 -24 146 -99 190 -173 20 -32 47 -63 63 -70 15 -8 50 -24 77
-38 56 -28 147 -47 226 -48 51 0 67 7 230 99 96 54 216 126 265 159 53 36 361
197 750 392 642 322 746 378 793 428 l22 24 -47 25 c-27 14 -91 40 -143 59
-52 18 -108 43 -125 55 -16 12 -48 31 -70 42 -22 11 -49 29 -60 39 -57 53
-210 143 -242 143 -5 0 -20 11 -33 25 -27 28 -52 35 -27 7 10 -10 17 -22 17
-25 0 -15 -43 -6 -78 17 -41 27 -137 125 -137 141 -2 27 -27 55 -50 55 -28 0
-225 93 -324 154 -36 21 -94 52 -129 67 -35 16 -76 37 -90 48 -15 10 -48 26
-73 35 -25 10 -68 35 -96 56 -28 21 -59 41 -69 44 -11 3 -27 21 -38 38 -18 32
-19 32 -27 11 -7 -19 -12 -21 -38 -13 -28 8 -54 22 -198 109 -27 16 -49 40
-60 64 -9 20 -21 37 -26 37 -5 0 -22 14 -37 30 -15 17 -38 30 -49 30 -12 0
-41 10 -64 22 -23 11 -65 31 -92 42 -28 12 -103 49 -167 84 -64 34 -122 62
-129 62 -8 0 -53 19 -101 42 -65 31 -88 48 -93 65 -3 13 -24 42 -46 65 -26 27
-39 48 -36 60 7 26 -22 57 -60 64 l-33 7 0 -46 c0 -25 -3 -48 -7 -50 -10 -6
-135 50 -143 63 -3 5 -31 21 -63 34 -36 16 -58 32 -59 43 0 10 -2 35 -2 56 -1
31 -6 40 -31 53 -46 24 -107 44 -136 44 -39 0 -115 37 -138 66 -13 16 -27 24
-36 20 -18 -6 -53 25 -47 42 2 6 -8 17 -23 24 -22 10 -28 9 -35 -2 -7 -12 -12
-11 -28 3 -10 9 -22 17 -26 17 -4 0 -19 9 -34 20 -15 11 -44 21 -65 22 -25 2
-39 9 -43 21 -7 22 -78 59 -98 51 -9 -3 -16 -2 -16 4 0 5 -9 12 -21 15 -11 3
-25 19 -32 36 -7 19 -18 31 -27 29 -24 -4 -110 44 -110 61 0 11 3 12 11 4 6
-6 18 -9 26 -6 7 3 22 -2 32 -12 18 -16 20 -15 25 3 7 22 -2 52 -15 52 -5 0
-9 6 -9 14 0 8 -8 21 -18 28 -10 7 -21 21 -25 31 -16 41 -47 -7 -47 -73 0 -22
-2 -40 -5 -40 -12 0 -71 33 -103 57 -18 14 -48 29 -65 34 -42 12 -102 67 -111
102 -5 19 -13 27 -29 27 -12 0 -40 11 -62 25 -22 13 -47 25 -56 25 -16 0 -45
14 -159 78 -30 16 -80 44 -111 61 -31 17 -88 44 -127 60 -65 27 -200 110 -235
145 -9 9 -22 16 -29 16 -20 0 -76 62 -61 67 7 3 2 18 -15 44 -26 40 -36 46
-47 29 -8 -14 -33 -6 -118 36 -37 19 -75 34 -84 34 -8 0 -35 18 -60 40 -25 22
-51 40 -57 40 -6 0 -26 13 -44 30 -39 35 -76 47 -97 30 -16 -13 -45 -1 -154
63 -45 26 -57 40 -69 75 -11 34 -18 42 -38 42 -13 0 -26 -1 -29 -2 -3 -2 -14
12 -25 30 -18 29 -28 35 -86 46 -4 0 -8 -9 -9 -21 -2 -32 -7 -34 -43 -24 -30
9 -71 40 -64 49 2 2 1 6 -3 10 -3 3 -8 -3 -11 -15 -6 -23 -19 -19 -72 19 -23
16 -23 17 -7 42 13 20 14 26 4 26 -10 0 -10 3 -1 12 19 19 14 28 -13 28 -24 0
-27 3 -29 33 -1 14 -26 36 -43 37 -8 0 -9 -9 -3 -30 7 -24 5 -30 -6 -30 -19 0
-36 42 -21 52 16 10 -11 38 -38 38 -12 0 -40 7 -61 16 -54 22 -196 94 -214
109 -8 7 -101 56 -207 110 -224 113 -293 167 -293 230 0 21 -6 38 -14 41 -8 3
-12 13 -9 23 3 13 -2 20 -19 24 -28 8 -28 8 -56 -6z"/>
<path d="M24357 29039 c4 -13 8 -18 11 -10 2 7 -1 18 -6 23 -8 8 -9 4 -5 -13z"/>
<path d="M9110 26315 c-150 -39 -245 -91 -327 -180 -84 -91 -149 -201 -181
-309 -34 -109 -38 -313 -8 -391 56 -146 236 -356 361 -422 79 -41 210 -80 316
-95 82 -11 89 -10 162 15 87 30 81 28 199 97 221 129 371 420 339 655 -18 125
-49 236 -84 294 -42 70 -156 187 -232 237 -118 78 -266 125 -393 124 -32 -1
-100 -12 -152 -25z"/>
<path d="M21137 23768 c6 -2105 8 -2396 15 -2403 11 -11 145 34 221 74 40 21
126 73 192 116 66 43 217 129 335 190 370 193 512 269 616 332 55 34 177 99
270 146 347 174 448 236 478 296 8 15 22 65 32 112 21 102 11 176 -43 338 -19
57 -30 107 -25 110 30 21 102 212 102 274 0 29 9 85 20 125 19 67 19 74 5 89
-9 8 -14 22 -11 30 3 8 6 19 6 25 0 6 6 8 14 5 38 -15 51 70 20 119 -32 49
-83 87 -191 143 -77 41 -109 52 -120 45 -12 -7 -35 10 -104 78 -55 54 -101 90
-121 96 -18 5 -62 21 -98 35 -36 13 -78 28 -94 31 -30 7 -139 77 -153 99 -11
17 -46 35 -90 46 -89 22 -204 80 -246 124 -23 24 -48 46 -56 49 -10 3 -15 20
-16 55 -1 51 -16 83 -39 83 -7 0 -25 -13 -39 -28 -24 -25 -26 -33 -18 -55 12
-31 -3 -46 -18 -20 -6 10 -11 12 -11 6 0 -17 -15 -16 -33 2 -8 8 -17 11 -20 8
-11 -10 -55 7 -87 33 -17 15 -44 54 -59 89 -31 69 -45 79 -226 170 -55 28
-168 88 -252 133 -83 45 -153 82 -156 82 -2 0 -2 -577 0 -1282z m1899 81 c13
-44 5 -50 -26 -17 -23 25 -25 39 -8 56 15 15 20 9 34 -39z m61 -16 c2 -6 -2
-13 -10 -16 -8 -3 -13 3 -14 15 -2 20 18 21 24 1z"/>
<path d="M19273 25030 c-11 -5 -77 -41 -145 -81 -67 -40 -287 -167 -488 -282
-201 -115 -390 -226 -420 -245 -30 -20 -93 -57 -140 -82 -47 -26 -137 -78
-200 -116 -63 -39 -200 -115 -305 -169 -311 -160 -353 -184 -520 -295 -243
-163 -261 -173 -540 -315 -249 -126 -458 -213 -567 -236 l-50 -11 43 -26 c24
-14 88 -57 141 -94 54 -37 144 -93 200 -124 57 -32 144 -81 193 -109 78 -46
284 -155 292 -155 2 0 3 10 3 23 1 21 1 21 14 4 8 -10 18 -17 22 -16 39 7 47
-1 40 -40 -5 -36 -4 -40 33 -64 22 -14 54 -42 73 -61 18 -19 52 -42 75 -51 41
-16 43 -16 79 5 32 20 35 26 30 54 -8 41 6 90 27 94 28 6 48 -53 47 -136 -1
-22 8 -42 24 -60 13 -15 35 -39 48 -54 20 -23 256 -153 264 -145 1 1 0 21 -3
45 -4 28 -11 42 -21 42 -13 0 -13 2 0 18 9 9 18 39 21 65 2 27 9 53 15 59 19
19 34 -34 39 -141 6 -112 12 -128 62 -155 14 -7 177 -90 361 -184 184 -93 362
-183 395 -200 33 -17 184 -91 335 -164 151 -74 337 -169 413 -211 75 -42 138
-77 140 -77 1 0 2 514 2 1142 0 629 2 1460 5 1847 3 465 2 705 -5 707 -5 1
-20 -1 -32 -6z m-2453 -2291 c0 -5 -7 -9 -15 -9 -15 0 -20 12 -9 23 8 8 24 -1
24 -14z m120 -109 c0 -5 -5 -10 -11 -10 -5 0 -7 5 -4 10 3 6 8 10 11 10 2 0 4
-4 4 -10z"/>
<path d="M21878 24634 c11 -22 42 -51 42 -40 0 4 -12 19 -26 34 -20 21 -24 22
-16 6z"/>
<path d="M30260 24078 c-41 -25 -275 -158 -375 -213 -38 -21 -114 -64 -167
-96 -53 -32 -244 -135 -425 -230 -180 -94 -337 -177 -348 -184 -11 -7 -67 -42
-125 -77 -130 -80 -254 -151 -343 -195 -71 -35 -87 -54 -67 -78 21 -25 16
-209 -9 -305 -12 -47 -28 -149 -36 -228 -12 -116 -22 -164 -55 -260 -22 -65
-40 -133 -40 -152 0 -39 -61 -220 -108 -320 -29 -61 -148 -200 -171 -200 -5 0
-26 -24 -47 -52 -20 -29 -45 -59 -55 -66 -27 -19 -89 -126 -89 -154 0 -22 -53
-118 -82 -146 -7 -8 -62 -43 -122 -78 -59 -34 -143 -91 -185 -126 -42 -35
-118 -96 -169 -136 l-93 -74 3 -1773 c3 -1761 3 -1774 23 -1789 11 -8 65 -34
120 -58 55 -23 269 -127 475 -231 573 -289 563 -282 576 -354 5 -25 18 -41 51
-63 24 -17 48 -30 53 -30 4 0 11 14 15 30 4 17 10 30 13 30 28 0 130 -55 171
-91 96 -86 183 -137 262 -154 19 -4 52 -22 74 -39 73 -59 179 -121 280 -166
55 -24 122 -58 150 -76 58 -36 100 -56 198 -90 64 -22 70 -22 93 -7 21 13 29
14 49 3 33 -18 65 -4 186 76 64 42 121 72 157 81 98 25 152 68 184 143 7 17
11 1234 14 3940 2 2153 6 3936 9 3963 3 26 2 47 -2 47 -4 0 -24 -10 -43 -22z"/>
<path d="M10855 23620 c-27 -17 -86 -56 -130 -87 -160 -113 -307 -195 -452
-252 -45 -18 -85 -40 -89 -49 -15 -34 -22 -1428 -23 -4555 l0 -3198 67 37 c37
21 103 61 147 89 122 78 287 176 413 244 63 34 146 83 185 110 40 26 126 78
192 115 115 65 1063 539 1558 780 273 132 395 199 484 265 109 81 99 -150 94
1996 -2 1034 -5 1883 -7 1886 -2 4 -4 325 -5 714 -1 583 -3 711 -15 733 -8 15
-14 34 -14 43 0 11 -15 20 -44 28 -64 16 -97 15 -90 -4 4 -8 1 -15 -5 -15 -8
0 -8 -6 1 -20 14 -22 6 -36 -14 -24 -7 5 -20 7 -30 6 -9 -2 -19 2 -23 8 -3 5
0 10 7 10 7 0 0 12 -16 26 -19 18 -24 29 -16 34 8 5 6 9 -7 14 -10 3 -40 14
-68 24 -29 10 -50 23 -51 32 -1 48 -27 89 -66 109 -28 13 -46 17 -53 11 -7 -6
-15 -7 -18 -3 -12 12 -35 -18 -47 -62 -21 -75 -24 -73 -118 47 -19 23 -45 65
-59 92 -13 27 -32 56 -41 66 -19 18 -107 51 -189 70 -28 6 -75 27 -105 47 -29
19 -152 83 -273 143 -121 60 -236 118 -255 129 -19 12 -145 75 -280 140 -135
66 -291 149 -345 185 -58 38 -110 66 -125 66 -14 0 -47 -14 -75 -30z"/>
<path d="M25725 23630 c-160 -20 -255 -70 -375 -196 -92 -97 -157 -199 -187
-291 -33 -107 -33 -267 2 -387 39 -135 87 -220 169 -302 127 -125 262 -201
412 -230 183 -35 302 -3 467 123 83 64 234 210 267 258 79 115 99 340 46 520
-39 130 -85 206 -185 305 -145 145 -259 197 -445 205 -56 2 -132 0 -171 -5z"/>
<path d="M28245 22080 c-3 -5 -1 -10 4 -10 6 0 11 5 11 10 0 6 -2 10 -4 10 -3
0 -8 -4 -11 -10z"/>
<path d="M15194 21368 c-4 -18 -8 -737 -8 -1598 -1 -861 -5 -1571 -9 -1577 -5
-8 -3 -13 4 -13 12 0 104 40 143 61 10 6 139 71 286 144 146 74 320 166 386
206 180 108 319 186 529 295 105 54 282 154 395 222 141 85 359 199 700 368
620 306 583 287 587 300 10 30 -427 269 -1172 642 -243 121 -517 259 -610 307
-94 48 -250 128 -348 178 -181 92 -200 106 -227 177 -21 55 -41 80 -61 80 -17
0 -19 -5 -13 -56 7 -56 7 -56 -17 -49 -58 19 -169 79 -169 92 0 10 -6 12 -20
8 -13 -4 -22 -1 -26 9 -3 9 -14 16 -23 16 -33 0 -61 30 -61 65 0 18 -3 41 -6
50 -7 18 -84 59 -163 86 -76 26 -87 25 -97 -13z m646 -349 c0 -4 -7 -6 -15 -3
-8 4 -15 10 -15 15 0 4 7 6 15 3 8 -4 15 -10 15 -15z"/>
<path d="M24199 20855 c-103 -37 -222 -104 -346 -193 -59 -43 -157 -99 -238
-138 -76 -36 -157 -78 -181 -94 -47 -33 -317 -182 -434 -239 -41 -21 -136 -69
-210 -108 -74 -39 -157 -79 -185 -88 -119 -39 -275 -156 -275 -205 0 -23 32
-42 54 -34 13 5 16 -2 16 -34 0 -31 5 -43 25 -56 13 -9 33 -16 45 -16 11 0 20
-4 20 -10 0 -14 28 -12 33 3 3 9 8 9 18 1 8 -5 28 -9 44 -8 46 3 131 -42 156
-83 12 -19 35 -40 50 -45 31 -11 34 -15 20 -36 -7 -12 -14 -11 -41 3 -20 11
-36 13 -42 7 -6 -6 5 -15 29 -26 21 -9 45 -20 53 -26 8 -5 35 -18 60 -28 25
-11 67 -29 94 -41 59 -26 74 -27 55 -3 -57 70 -48 140 13 98 12 -9 32 -16 44
-16 23 0 74 -42 74 -60 0 -7 -9 -14 -20 -17 -22 -6 -26 -18 -10 -28 16 -10 12
-35 -5 -29 -32 13 -12 -5 48 -42 34 -21 148 -82 252 -134 105 -53 327 -167
495 -255 168 -87 440 -225 605 -306 165 -82 343 -171 395 -199 196 -104 299
-154 307 -147 10 10 10 2089 0 2148 -7 42 -12 49 -55 71 -26 14 -65 31 -87 38
-39 13 -79 29 -365 157 -204 90 -207 92 -275 156 -50 46 -69 57 -96 57 -19 0
-50 4 -70 9 -24 5 -48 4 -70 -4z"/>
<path d="M21149 17813 c-5 -1055 2 -1307 37 -1376 16 -30 85 -66 244 -128 104
-40 154 -84 175 -154 15 -53 62 -105 94 -105 7 0 26 -9 41 -20 18 -13 42 -19
66 -18 23 0 57 -8 81 -20 23 -12 48 -22 56 -22 7 0 26 -13 41 -29 21 -22 29
-44 37 -95 5 -41 6 -74 0 -84 -15 -26 5 -49 65 -77 30 -14 58 -25 63 -25 5 0
11 -7 14 -15 4 -8 20 -18 38 -22 26 -7 38 -21 70 -83 90 -170 113 -199 156
-200 12 0 23 -6 26 -12 3 -10 16 -6 46 11 29 16 52 22 74 18 26 -4 45 4 97 38
54 36 150 87 412 222 15 8 66 45 113 82 47 37 136 96 198 131 61 34 132 80
157 101 26 22 91 58 150 82 106 44 284 134 330 167 14 10 84 48 155 86 72 37
161 90 199 118 62 46 67 51 44 54 -14 2 -36 14 -49 28 l-24 26 24 19 c31 25
23 42 -41 82 -101 65 -168 72 -160 18 6 -40 -27 -47 -74 -15 -20 14 -44 22
-53 19 -10 -3 -25 3 -34 13 -15 17 -15 20 -1 41 9 12 22 20 30 17 8 -3 14 -1
14 5 0 13 -101 108 -115 109 -6 0 -27 9 -48 20 -21 12 -66 31 -100 43 -34 13
-107 49 -162 82 -55 33 -120 67 -145 76 -61 22 -1268 627 -1294 648 -6 5 -40
21 -76 34 -132 51 -233 97 -253 114 -28 26 -96 118 -107 147 -6 17 -38 39
-107 73 -54 28 -136 71 -183 96 -91 49 -234 110 -287 121 l-32 7 -2 -448z
m256 325 c156 -78 237 -141 247 -191 3 -15 2 -29 -2 -32 -10 -6 -95 40 -247
131 -146 88 -189 121 -208 157 -26 51 -13 47 210 -65z"/>
<path d="M18919 18044 c-206 -102 -470 -242 -586 -310 -117 -68 -344 -192
-505 -275 -160 -83 -303 -158 -317 -168 -33 -23 -327 -184 -451 -246 -52 -26
-147 -76 -210 -110 -146 -79 -343 -178 -518 -259 -75 -35 -201 -95 -280 -134
l-143 -70 48 -25 c27 -13 178 -90 336 -171 158 -80 307 -158 330 -173 23 -14
83 -68 133 -118 67 -68 100 -95 125 -100 19 -4 43 -13 54 -20 11 -7 47 -23 81
-37 34 -13 92 -45 131 -71 38 -25 108 -63 154 -82 46 -20 91 -42 99 -48 33
-27 79 -47 94 -41 10 4 22 -5 35 -28 30 -51 39 -57 81 -64 22 -4 40 -10 40
-15 0 -5 7 -9 15 -9 8 0 15 -8 15 -19 0 -10 8 -21 18 -25 9 -3 22 -8 27 -11 6
-3 18 8 28 25 16 27 20 28 45 17 33 -14 42 -26 38 -52 -2 -11 -1 -14 1 -6 6
17 85 8 117 -12 34 -22 75 -29 91 -15 9 7 39 42 67 78 29 36 78 93 109 127 62
67 140 167 231 297 75 105 121 145 199 175 74 29 142 65 160 87 26 31 246 167
381 235 l76 38 11 68 c5 37 13 106 16 153 7 112 11 1588 4 1595 -3 3 -174 -79
-380 -181z"/>
<path d="M26527 15431 c-10 -4 -19 -11 -19 -16 0 -6 -4 -16 -10 -22 -8 -10 -4
-13 16 -13 16 0 26 -5 26 -15 0 -16 -16 -20 -24 -6 -26 41 -194 1 -331 -80
-50 -28 -137 -77 -195 -107 -58 -30 -159 -88 -225 -129 -66 -41 -168 -105
-227 -142 -58 -36 -144 -91 -190 -123 -45 -31 -177 -105 -293 -165 -115 -60
-250 -135 -300 -167 -49 -33 -106 -69 -126 -82 -55 -34 -198 -106 -252 -125
-26 -10 -93 -48 -150 -86 -132 -89 -158 -103 -367 -209 -96 -48 -204 -106
-240 -129 -36 -23 -79 -51 -96 -61 -17 -10 -72 -46 -122 -79 -50 -33 -130 -82
-178 -110 -48 -27 -110 -68 -138 -91 -74 -59 -188 -124 -219 -124 -38 0 -185
-41 -188 -52 0 -2 -4 -40 -8 -85 -7 -76 -11 -86 -44 -123 -21 -22 -37 -45 -37
-50 0 -6 -23 -39 -51 -75 -46 -59 -52 -72 -73 -174 -26 -122 -50 -165 -103
-187 -50 -21 -107 -77 -176 -173 -142 -199 -287 -341 -507 -498 -184 -132
-295 -196 -435 -254 l-104 -43 -3 -1455 c-2 -801 -3 -1457 -3 -1458 2 -10 179
75 228 108 138 95 169 113 332 196 94 47 269 145 390 218 121 72 267 158 325
190 58 31 161 94 230 138 69 44 181 109 250 145 152 79 455 248 491 273 92 65
601 350 932 523 81 43 191 110 245 150 189 141 245 175 507 311 364 190 409
216 900 517 50 30 163 94 253 142 158 83 374 207 560 320 50 30 142 83 204
117 62 33 142 82 178 108 78 57 120 81 270 157 135 67 415 228 515 294 39 26
115 73 170 105 55 32 141 84 190 115 50 31 122 69 160 85 107 42 205 96 222
122 13 20 14 38 7 106 -4 45 -9 251 -10 457 -1 206 -3 400 -4 430 -1 30 5 80
14 110 14 51 14 56 -2 72 -21 22 -159 95 -362 193 -85 41 -177 86 -205 101
-104 55 -202 101 -250 119 -27 10 -82 40 -121 66 -39 26 -82 50 -95 54 -52 15
-255 108 -274 125 -11 10 -32 23 -47 29 -27 10 -39 31 -18 31 16 0 12 37 -7
55 -9 10 -18 31 -20 48 -2 17 -9 35 -16 39 -6 4 -8 8 -2 8 5 0 5 4 -1 10 -8 8
-19 7 -38 0 -22 -8 -27 -15 -23 -31 5 -17 2 -20 -14 -16 -16 4 -18 3 -9 -7 11
-14 8 -63 -3 -58 -10 3 -10 3 -31 7 -19 4 -66 51 -66 65 0 4 -16 11 -35 14
-40 8 -85 47 -110 95 -35 70 -69 90 -144 86 -47 -3 -60 1 -110 32 -75 48 -103
74 -98 94 10 38 -22 58 -66 40z"/>
<path d="M13947 15380 c-20 -11 -45 -20 -55 -20 -19 0 -150 -63 -297 -142 -44
-24 -109 -56 -145 -72 -70 -30 -496 -243 -552 -274 -107 -62 -164 -95 -258
-152 -132 -80 -322 -184 -465 -254 -60 -29 -153 -81 -205 -114 -137 -88 -263
-158 -445 -250 -88 -43 -173 -87 -190 -96 -16 -8 -84 -42 -150 -74 -176 -86
-435 -245 -435 -266 0 -13 76 -88 137 -134 22 -18 166 -98 320 -179 153 -80
348 -187 433 -238 85 -50 193 -113 240 -140 47 -26 139 -84 205 -128 111 -73
226 -137 278 -153 12 -3 47 -23 77 -43 30 -20 89 -52 130 -71 165 -77 267
-136 309 -177 25 -24 50 -43 56 -43 5 0 30 -18 53 -41 34 -31 49 -39 67 -35
15 4 37 -2 60 -15 34 -20 37 -21 55 -4 19 17 40 13 40 -8 0 -37 137 -137 310
-227 36 -18 94 -51 130 -73 36 -22 135 -77 221 -123 87 -45 188 -107 225 -138
38 -30 114 -79 169 -107 55 -29 152 -82 215 -119 63 -37 165 -93 226 -123 62
-31 149 -78 195 -105 46 -27 139 -77 207 -110 143 -71 166 -86 248 -162 33
-31 98 -75 145 -99 46 -24 125 -67 174 -96 50 -28 140 -78 200 -110 61 -32
160 -89 220 -125 61 -37 166 -98 235 -135 69 -37 179 -102 245 -145 118 -76
327 -194 595 -335 74 -39 155 -84 180 -101 25 -17 77 -48 115 -69 39 -21 104
-56 145 -78 41 -22 114 -67 162 -99 48 -32 140 -87 205 -121 223 -119 518
-294 644 -384 69 -49 181 -118 250 -153 68 -34 140 -73 159 -85 62 -39 260
-145 271 -145 6 0 8 3 6 8 -3 4 -8 637 -12 1407 l-7 1400 -27 35 c-15 19 -33
49 -40 67 -7 17 -41 59 -76 92 -51 49 -91 75 -207 131 -133 66 -151 78 -263
181 -66 61 -145 129 -175 152 -97 73 -237 206 -250 237 -11 26 -133 158 -202
218 -15 13 -32 40 -39 60 -24 74 -67 159 -127 251 -34 52 -62 101 -62 111 0 9
-3 20 -7 23 -3 4 -8 19 -9 34 -2 15 -12 39 -23 54 -11 15 -22 42 -25 61 -14
104 -37 129 -131 143 -27 4 -61 15 -75 24 -14 10 -40 21 -59 25 -18 3 -48 21
-66 39 -92 90 -117 107 -174 112 -21 2 -73 22 -116 45 -43 22 -84 40 -91 40
-7 0 -21 16 -30 36 -14 30 -21 34 -41 30 -38 -10 -108 38 -126 87 -3 9 -15 17
-26 17 -11 0 -22 4 -26 9 -3 6 -14 9 -25 8 -15 -1 -20 -9 -20 -29 0 -34 -12
-35 -76 -4 -63 30 -114 78 -114 106 0 50 -77 139 -120 138 -14 -1 -47 11 -72
26 -24 14 -60 26 -78 26 -31 0 -93 30 -115 55 -5 6 -35 29 -65 52 -30 22 -64
50 -74 62 -19 21 -66 29 -66 11 0 -18 -29 -11 -77 19 -36 22 -50 27 -63 19
-20 -13 -66 13 -75 43 -4 11 -22 26 -41 34 -39 16 -42 25 -14 50 23 21 26 53
6 61 -8 3 -12 12 -9 20 3 8 0 14 -6 14 -6 0 -11 9 -11 19 0 29 -16 34 -52 17
-17 -9 -37 -16 -44 -16 -8 0 -14 -16 -16 -42 -4 -54 -24 -60 -71 -19 -19 17
-43 31 -53 31 -34 0 -81 36 -87 66 -6 32 -56 103 -72 104 -5 0 -21 12 -34 25
-13 14 -32 25 -43 25 -10 0 -52 15 -91 34 -40 19 -82 37 -94 41 -19 5 -82 48
-193 130 -23 17 -42 24 -57 20 -29 -7 -264 112 -271 138 -2 9 -13 17 -23 17
-18 0 -23 10 -20 38 1 6 -3 12 -9 12 -6 0 -8 5 -5 10 20 32 -31 79 -62 59 -15
-9 -35 -3 -105 30 -47 23 -89 41 -92 41 -3 0 -42 20 -87 45 -45 25 -89 45 -98
45 -9 0 -33 -9 -54 -20z m2578 -1430 c3 -5 -1 -10 -9 -10 -9 0 -16 5 -16 10 0
6 4 10 9 10 6 0 13 -4 16 -10z"/>
<path d="M20070 14732 c-30 -10 -110 -47 -177 -81 -130 -66 -154 -88 -240
-216 -119 -178 -144 -266 -124 -426 6 -47 19 -111 29 -141 25 -76 147 -296
194 -351 74 -88 185 -145 360 -187 l94 -23 109 22 c168 34 237 71 365 200 113
114 152 174 190 296 42 133 23 382 -37 498 -35 69 -214 263 -331 361 -40 32
-50 36 -105 37 -34 0 -84 4 -112 10 -105 19 -158 20 -215 1z"/>
<path d="M31087 14390 c-72 -13 -181 -48 -245 -78 -125 -59 -223 -200 -276
-397 -13 -49 -29 -110 -35 -135 -18 -64 -19 -93 -5 -110 6 -8 14 -42 17 -75 7
-70 53 -208 93 -280 93 -167 400 -347 594 -349 59 -1 80 6 223 67 201 86 273
131 335 210 60 76 67 88 104 196 26 74 31 105 35 222 7 168 -9 248 -71 376
-66 134 -171 241 -259 263 -23 6 -57 18 -76 27 -100 46 -178 64 -281 68 -58 2
-127 0 -153 -5z"/>
<path d="M16715 13820 c4 -6 11 -8 16 -5 14 9 11 15 -7 15 -8 0 -12 -5 -9 -10z"/>
<path d="M17876 13036 c3 -8 1 -23 -4 -33 -12 -25 9 -68 26 -51 16 16 15 71 0
86 -16 16 -29 15 -22 -2z"/>
</g>
</svg>
